<svg id="Layer_1" enable-background="new 0 0 512 512" height="512" viewBox="0 0 512 512" width="512" xmlns="http://www.w3.org/2000/svg"><g fill="white"><g><path d="m360.579 129.326c-10.324-15.969-24.272-28.528-41.512-37.355-17.09-8.613-38.347-12.98-63.179-12.98-25.295 0-46.9 4.947-64.186 14.687-17.249 9.643-31.414 22.8-42.101 39.106-10.437 15.923-17.882 34.694-22.131 55.806-1.254 6.271-2.331 12.719-3.201 19.163-.739 5.474 3.099 10.509 8.572 11.249 5.473.738 10.51-3.099 11.249-8.572.814-6.03 1.821-12.058 2.991-17.906 3.74-18.586 10.216-34.997 19.249-48.775 8.904-13.585 20.725-24.558 35.163-32.63 14.281-8.047 32.583-12.127 54.396-12.127 21.677 0 39.905 3.647 54.121 10.812 14.018 7.178 25.381 17.4 33.775 30.383 8.645 13.37 14.872 29.847 18.51 48.974 3.793 19.945 5.717 42.222 5.717 66.213 0 22.104-1.96 43.173-5.827 62.623-3.747 18.852-10.235 35.529-19.285 49.568-8.845 13.721-20.634 24.705-35.122 32.69-14.134 7.964-32.436 12.002-54.397 12.002-21.97 0-40.363-3.54-54.611-10.493-14.108-6.998-25.019-16.807-33.335-29.957-8.638-13.773-14.847-30.494-18.454-49.696-1.443-7.68-2.629-15.833-3.526-24.234-.586-5.491-5.502-9.471-11.005-8.882-5.492.586-9.468 5.513-8.882 11.005.952 8.924 2.216 17.605 3.756 25.803 4.072 21.673 11.193 40.726 21.187 56.662 10.209 16.142 24.129 28.663 41.43 37.244 17.061 8.326 38.405 12.548 63.44 12.548 25.443 0 47.048-4.905 64.133-14.532 17.339-9.557 31.536-22.788 42.196-39.325 10.418-16.163 17.851-35.174 22.091-56.505 4.121-20.731 6.21-43.112 6.21-66.522 0-25.242-2.042-48.777-6.069-69.95-4.123-21.676-11.31-40.549-21.363-56.097z"/><path d="m487.276 432.831c-5.927-17.005-15.025-20.574-21.614-20.574h-14.989c9.702-15.905 17.667-33.684 23.767-53.076 10.04-31.922 15.13-68.493 15.13-108.697 0-41.72-4.917-78.741-14.62-110.048-9.813-31.534-24.661-58.061-44.083-78.795-19.377-20.959-43.946-36.703-73.038-46.798-28.507-9.85-61.665-14.843-98.556-14.843-38.812 0-73.523 6.066-103.149 18.021-29.775 11.936-55.16 29.478-75.426 52.113-20.258 22.48-35.688 50.077-45.858 82.024-10.047 31.558-15.141 67.465-15.141 106.725 0 42.515 4.782 80.054 14.212 111.573 9.531 31.857 24.162 58.613 43.489 79.527 19.373 20.955 43.934 36.738 72.986 46.906 28.517 10.026 62.157 15.11 99.986 15.11.859 0 1.715-.003 2.569-.009.146.006.292.009.44.009h212.282c5.595 0 15.89-2.258 21.971-17.38 3.859-9.597 4.669-20.97 4.669-28.821-.001-11.79-1.833-23.806-5.027-32.967zm-17.37 51.974c-1.663 5.383-3.61 7.195-4.244 7.195h-211.77c-.198-.01-.393-.017-.596-.013-.972.008-1.947.013-2.926.013-35.564 0-66.973-4.703-93.366-13.982-26.313-9.209-47.549-22.82-64.919-41.608-17.238-18.655-30.365-42.773-39.015-71.685-8.874-29.659-13.373-65.269-13.373-105.841 0-37.198 4.777-71.064 14.199-100.657 9.302-29.217 23.317-54.351 41.68-74.727 18.219-20.348 41.094-36.132 68.011-46.923 27.257-11 59.451-16.577 95.686-16.577 34.663 0 65.625 4.625 92.012 13.741 25.94 9.002 47.774 22.957 64.94 41.524 17.386 18.561 30.719 42.486 39.625 71.102 9.104 29.376 13.72 64.406 13.72 104.117 0 38.167-4.781 72.719-14.209 102.697-7.553 24.017-18.156 45.241-31.512 63.084-2.269 3.031-2.632 7.083-.937 10.469s5.156 5.524 8.942 5.524h32.873c1.66 1.681 4.933 7.988 6.634 20.038 1.66 11.768 1.103 24.225-1.455 32.509z"/><path d="m131.265 263.994c5.523 0 10-4.477 10-10s-4.477-10-10-10h-.007c-5.523 0-9.996 4.477-9.996 10s4.48 10 10.003 10z"/></g></g></svg>
